<svg xmlns="http://www.w3.org/2000/svg" viewBox="1 1 254 254"><path d="M127.857 254.307h0c-69.837 0-126.45-56.613-126.45-126.45h0c0-69.837 56.613-126.45 126.45-126.45h0c69.837 0 126.45 56.613 126.45 126.45h0c0 69.837-56.613 126.45-126.45 126.45z" fill="#3ba0fe"/><path d="M85.642 73.885c17.088 12.828 35.468 38.84 42.215 52.797 6.75-13.957 25.127-39.969 42.215-52.797 12.33-9.256 32.307-16.419 32.307 6.37 0 4.552-2.61 38.236-4.139 43.704-5.319 19.012-24.706 23.86-41.95 20.926 30.143 5.131 37.811 22.123 21.249 39.115-31.45 32.273-45.204-8.098-48.728-18.442-.646-1.897-.947-2.785-.953-2.029-.006-.753-.306.132-.953 2.029-3.524 10.344-17.276 50.715-48.728 18.442-16.559-16.992-8.894-33.987 21.249-39.115-17.245 2.934-36.631-1.914-41.95-20.926-1.531-5.468-4.139-39.152-4.139-43.704 0-22.789 19.976-15.626 32.307-6.37h0z" fill="#ffffff"/></svg>
